<?xml version="1.0" encoding="utf-8"?>
<!-- Generator: Adobe Illustrator 19.1.0, SVG Export Plug-In . SVG Version: 6.00 Build 0)  -->
<svg version="1.1" id="レイヤー_1" xmlns="http://www.w3.org/2000/svg" xmlns:xlink="http://www.w3.org/1999/xlink" x="0px"
	 y="0px" viewBox="0 0 164.4 17.2" style="enable-background:new 0 0 164.4 17.2;" xml:space="preserve">
<style type="text/css">
	.st0{fill-rule:evenodd;clip-rule:evenodd;fill:#FFFFFF;}
	.st1{fill:none;stroke:#000000;stroke-width:0.5;stroke-miterlimit:10;}
	.st2{fill:none;stroke:#000000;stroke-width:0.5;stroke-miterlimit:10;stroke-dasharray:2.9965,2.9965;}
	.st3{fill:#FFFFFF;}
	.st4{fill:none;stroke:#000000;stroke-width:4;stroke-linejoin:round;stroke-miterlimit:10;}
	.st5{fill:none;}
	.st6{fill:none;stroke:#FFFFFF;stroke-linecap:round;stroke-linejoin:round;stroke-miterlimit:10;}
	.st7{fill:none;stroke:#000000;stroke-miterlimit:10;}
	.st8{fill-rule:evenodd;clip-rule:evenodd;}
	.st9{fill-rule:evenodd;clip-rule:evenodd;fill:#454545;}
</style>
<rect x="0" y="-379" class="st3" width="164.4" height="573.6"/>
<g>
	<g>
		<g>
			<path d="M80.8,7.7l-0.1-1l0.5,0l0.1,1l1.4-0.1l0,0.4l-1.4,0.1l0.1,0.9l1.8-0.2l0.1,0.5l-1.8,0.2l0.2,1.6l-0.5,0L81,9.4l-1.8,0.2
				l-0.1-0.5L80.9,9l-0.1-0.9l-1.4,0.1l0-0.5L80.8,7.7z"/>
			<path d="M84.6,9.5V7h0.5v2.5H84.6z M85.2,11.1c-0.1-0.1-0.1-0.3-0.3-0.5c0.4-0.1,0.7-0.2,0.8-0.3c0.2-0.1,0.3-0.2,0.5-0.4
				c0.1-0.1,0.2-0.3,0.3-0.5c0.1-0.3,0.1-0.7,0.1-1.1V6.8h0.5v1.8c0,0.7-0.1,1.3-0.4,1.6C86.5,10.5,86,10.8,85.2,11.1z"/>
			<path d="M89.2,11.1V6.7h0.6v1.4c0.6,0.2,1,0.4,1.1,0.4c0.1,0.1,0.5,0.2,1,0.5l-0.3,0.5c-0.3-0.2-0.6-0.4-1-0.6
				c-0.2-0.1-0.5-0.2-0.9-0.4v2.5H89.2z"/>
			<path d="M93.3,9.5V7h0.5v2.5H93.3z M94,11.1c-0.1-0.1-0.1-0.3-0.3-0.5c0.4-0.1,0.7-0.2,0.8-0.3c0.2-0.1,0.3-0.2,0.5-0.4
				c0.1-0.1,0.2-0.3,0.3-0.5c0.1-0.3,0.1-0.7,0.1-1.1V6.8h0.5v1.8c0,0.7-0.1,1.3-0.4,1.6C95.3,10.5,94.8,10.8,94,11.1z"/>
			<path d="M99,9.1h0.7l0,0l0.3,0.3c-0.2,0.4-0.4,0.8-0.5,1c-0.2,0.3-0.4,0.5-0.6,0.6l-0.1-0.2c0,0-0.1-0.1-0.2-0.1
				c0.2-0.2,0.4-0.3,0.5-0.4c0.1-0.1,0.3-0.4,0.4-0.7H99L99,9.1l-0.4,0.1l-0.1-0.1l-0.3,0v2h-0.5v-2c-0.1,0-0.3,0-0.7,0.1l-0.1-0.5
				c0.2,0,0.3,0,0.4,0l0.3-0.5c-0.3-0.2-0.5-0.4-0.8-0.5l0.2-0.4l0.2,0.1l0.4-1l0.5,0.2l-0.5,1l0.2,0.2c0-0.1,0.1-0.1,0.1-0.2
				c0-0.1,0.1-0.3,0.3-0.6l0.4,0.2L98,8.8c0.1,0,0.3,0,0.5,0c0-0.1,0-0.1-0.1-0.2c0-0.1-0.1-0.1-0.1-0.1l0.4-0.1
				C98.9,8.5,98.9,8.8,99,9.1z M97.5,10.8l-0.4-0.1c0.2-0.5,0.2-1,0.3-1.3l0.4,0.1c0,0.3-0.1,0.5-0.1,0.7
				C97.6,10.4,97.5,10.6,97.5,10.8z M99,10.2l-0.4,0.1c0-0.1,0-0.2-0.1-0.4s-0.1-0.3-0.1-0.4l0.4-0.1C98.9,9.9,98.9,10.1,99,10.2z
				 M100.6,6.6L100.4,7h1.1v1.7h-0.9v0.1c0,0,0,0,0,0.2c0.1,0.2,0.1,0.3,0.2,0.4c0.1-0.1,0.2-0.2,0.3-0.2s0.2-0.2,0.4-0.3l0.3,0.4
				l-0.7,0.4c0.2,0.2,0.3,0.3,0.3,0.3c0.2,0.2,0.3,0.3,0.5,0.4c-0.1,0.1-0.2,0.1-0.2,0.2c0,0-0.1,0.1-0.1,0.2
				c-0.2-0.2-0.4-0.4-0.6-0.5c-0.1-0.2-0.3-0.4-0.4-0.7v1.1c0,0.1,0,0.2-0.1,0.3c-0.1,0.1-0.3,0.1-0.7,0.2c0-0.1,0-0.2,0-0.2
				c0,0,0-0.1,0-0.1c0,0-0.1-0.1-0.1-0.1h0.4c0,0,0.1,0,0.1,0c0,0,0,0,0-0.1V8.7h-1V7h0.8c0-0.1,0.1-0.3,0.1-0.5L100.6,6.6z
				 M101,7.7V7.4h-1.5v0.3H101z M101,8.4V8h-1.5v0.3H101z"/>
		</g>
		<g>
			<path d="M64.7,14c1.4-0.4,1.3-1.5,1.3-1.7c0-0.2,0-0.9,0.4-1c0.4-0.1,4.1-1.6,4.5-1.7c0,0,4.9-2.2,5.1-2.4c0.1-0.2-0.6-0.1-1,0
				c-0.4,0.1-6.4,2.1-6.4,2.1s-0.6,0.7-0.7,0.8c-0.1,0.1-1.6,0.7-1.9,0.9c-0.3,0.2-0.4,0.5-0.4,0.5c-0.1,0-0.6-0.5-1.6-0.2
				c-1,0.3-1.6,1.2-1.4,1.8C62.7,13.8,63.3,14.4,64.7,14z M63,13.2c-0.1-0.5,0-1.1,1-1.4c1-0.3,1.6,0.2,1.6,0.6
				c0.1,0.4-0.2,1-0.9,1.3C64,14,63.1,13.7,63,13.2z"/>
			<path d="M76,11.4C75.9,11.3,70.9,9,70.9,9c-0.4-0.1-4.1-1.6-4.5-1.7c-0.4-0.1-0.4-0.8-0.4-1c0-0.2,0.1-1.3-1.3-1.7
				c-1.4-0.4-1.9,0.1-2.1,0.7c-0.2,0.6,0.4,1.4,1.4,1.8C65,7.5,65.5,7,65.6,7c0.1,0,0.2,0.3,0.4,0.5c0.3,0.2,1.8,0.8,1.9,0.9
				c0.1,0.1,0.7,0.8,0.7,0.8s6,2,6.4,2.1C75.4,11.5,76.1,11.6,76,11.4z M64,6.8c-1-0.3-1.1-0.9-1-1.4C63.1,5,64,4.6,64.7,5
				c0.7,0.3,1,0.9,0.9,1.3C65.6,6.6,65,7.2,64,6.8z"/>
		</g>
	</g>
	<g>
		<g>
			<line class="st1" x1="0" y1="9.3" x2="1.5" y2="9.3"/>
			<line class="st2" x1="4.5" y1="9.3" x2="56.9" y2="9.3"/>
			<line class="st1" x1="58.4" y1="9.3" x2="59.9" y2="9.3"/>
		</g>
	</g>
	<g>
		<g>
			<line class="st1" x1="104.5" y1="9.3" x2="106" y2="9.3"/>
			<line class="st2" x1="109" y1="9.3" x2="161.4" y2="9.3"/>
			<line class="st1" x1="162.9" y1="9.3" x2="164.4" y2="9.3"/>
		</g>
	</g>
</g>
</svg>
