<?xml version="1.0" encoding="utf-8"?>
<!-- Generator: Adobe Illustrator 19.1.0, SVG Export Plug-In . SVG Version: 6.00 Build 0)  -->
<svg version="1.1" id="レイヤー_1" xmlns="http://www.w3.org/2000/svg" xmlns:xlink="http://www.w3.org/1999/xlink" x="0px"
	 y="0px" viewBox="0 0 164.4 25.9" style="enable-background:new 0 0 164.4 25.9;" xml:space="preserve">
<style type="text/css">
	.st0{fill-rule:evenodd;clip-rule:evenodd;fill:#FFFFFF;}
	.st1{fill:none;stroke:#000000;stroke-width:0.5;stroke-miterlimit:10;}
	.st2{fill:none;stroke:#000000;stroke-width:0.5;stroke-miterlimit:10;stroke-dasharray:2.9965,2.9965;}
	.st3{fill:#FFFFFF;}
	.st4{fill:none;stroke:#000000;stroke-width:4;stroke-linejoin:round;stroke-miterlimit:10;}
	.st5{fill:none;}
	.st6{fill:none;stroke:#FFFFFF;stroke-linecap:round;stroke-linejoin:round;stroke-miterlimit:10;}
	.st7{fill:none;stroke:#000000;stroke-miterlimit:10;}
	.st8{fill-rule:evenodd;clip-rule:evenodd;}
	.st9{fill-rule:evenodd;clip-rule:evenodd;fill:#454545;}
</style>
<rect y="24.4" width="164.4" height="1.5"/>
<g>
	<path d="M22.9,19.8c-0.1-0.3-0.1-0.4-0.2-0.6c-1.2,0.2-2.5,0.4-3.7,0.5l-0.2-1.5c0.2,0,0.3,0,0.7,0v-5.6h0.2l-0.9-1.1
		c0.6-0.4,1.3-1.2,1.7-2l1.7,0.2c-0.1,0.2-0.2,0.4-0.2,0.5h2v1.1c0.3-0.4,0.8-1,1.1-1.9l1.7,0.2c-0.1,0.2-0.1,0.3-0.2,0.5h2.8v1.4
		h-1.7c0.1,0.2,0.3,0.5,0.4,0.6l-1.7,0.4c-0.3-0.7-0.4-0.9-0.5-1h-0.1c-0.2,0.3-0.5,0.7-0.8,1h4v5.6c0,0.8-0.6,1-0.9,1h-1.3
		l-0.3-1.7h0.6c0.3,0,0.3,0,0.3-0.3v-3.1h-1.1v5.8h-1.6v-7.2l-1.1-1c0.1,0,0.1-0.1,0.1-0.1h-0.9c0.1,0.2,0.2,0.5,0.3,0.6l-1.6,0.3
		c-0.2-0.5-0.2-0.7-0.3-0.9H21c-0.4,0.5-0.8,0.8-1,1H24v4.1h-3v1.3c0.2,0,1.1-0.1,1.3-0.1c-0.1-0.3-0.2-0.5-0.3-0.7l1.4-0.5
		c0.5,0.8,0.7,1.3,1,2.4L22.9,19.8z M21,13.8v0.5h1.5v-0.5H21z M21,15.2v0.5h1.5v-0.5H21z"/>
	<path d="M39.9,11h-3.8v0.4h4.3v2.4h-1.6v-1.5h-2.7v1.8h-1.5v-1.8H32v1.5h-1.6v-2.4h4.2V11H31V9.8h8.9V11z M40.8,17.8
		c-0.2,1.9-0.8,2-1.4,2h-3.6c-0.9,0-1.2-0.4-1.2-0.9v-0.7h-3.6v-4h9v3.3L40.8,17.8z M34.3,12.6v0.5h-1.9v-0.5H34.3z M34.3,13.5V14
		h-1.9v-0.5H34.3z M34.5,16.7h-2v0.6h2V16.7z M34.5,15.3h-2v0.5h2V15.3z M38.2,15.3h-2.1v0.5h2.1V15.3z M38.2,16.7h-2.1v0.6h2.1
		V16.7z M38.6,18.7c0.3,0,0.4,0,0.5-0.4h-3.1v0.2c0,0.2,0.1,0.3,0.2,0.3H38.6z M38.4,12.6v0.5h-2v-0.5H38.4z M38.4,13.5V14h-2v-0.5
		H38.4z"/>
	<path d="M46.4,17.7c1.5-0.1,3.2-0.7,3.2-3.2c0-1.9-1.2-2.6-2.3-2.7c0,0.7-0.4,6.6-3.4,6.6c-1.6,0-2.3-1.8-2.3-3.3
		c0-3.2,2.5-5,5.2-5c3.2,0,4.7,2,4.7,4.4c0,0.8-0.2,2.5-1.5,3.7c-0.8,0.7-1.9,1-3,1.1L46.4,17.7z M43.3,15.2c0,0.4,0.1,1.4,0.7,1.4
		c0.6,0,1.4-1.4,1.7-4.6C44.3,12.3,43.3,13.6,43.3,15.2z"/>
	<path d="M61.2,12.8c-1.4,0.7-3.5,1.6-6,2.2v1.8c0,0.6,0.1,0.6,0.8,0.6h2.9c0.8,0,1.6-0.1,2.4-0.3l0.1,1.8c-0.6,0.1-1.4,0.2-2,0.2
		h-3.8c-1.1,0-2.2-0.2-2.2-1.8v-7h1.8v2.9c1.5-0.4,3.1-0.9,4.8-2L61.2,12.8z"/>
	<path d="M66.6,13.7c-1.1-0.7-2.1-1.2-3.4-1.7l0.8-1.5c0.6,0.2,2,0.6,3.6,1.6L66.6,13.7z M63.4,17.4c3.7-0.3,6.3-1.6,7.6-6.4
		l1.5,1.1c-1.5,4.8-4.2,6.7-8.7,7.3L63.4,17.4z"/>
	<path d="M81.2,16.6c-1.1-0.7-2.3-1.5-4.2-2.2v5h-1.9V10H77v2.5c2.7,0.8,4.3,1.8,5.1,2.2L81.2,16.6z"/>
	<path d="M88.1,19.9c-1.2-1.5-1.9-3.3-1.9-5.2s0.7-3.7,1.9-5.2h1.4c-1.2,1.5-1.9,3.3-1.9,5.2c0,1.9,0.7,3.8,1.9,5.2H88.1z"/>
	<path d="M93.2,18.5c0.5-0.1,1.3-0.3,2.3-0.9c-0.2-0.2-0.7-0.7-1.2-1.6c-0.2,0.2-0.4,0.3-0.6,0.5L93,15.3V20h-1.7v-3.9
		c-0.2,0.2-0.3,0.3-0.6,0.5L90,14.9c1.6-1.3,2.2-2.8,2.3-3.1h-2.1v-1.5h4.4V9.5h1.7v0.8h4.3v1.5H96l1.1,0.2
		c-0.1,0.2-0.1,0.3-0.2,0.6h3.3v1.4c-0.2,0.8-0.6,2.1-1.9,3.5c0.9,0.5,1.8,0.7,2.5,0.9L100,20c-0.7-0.2-1.8-0.6-3-1.3
		c-1.3,0.9-2.3,1.2-2.9,1.3L93.2,18.5z M93.2,11.8l0.9,0.2c-0.1,0.4-0.4,1-1.1,2.1V15c1-0.8,1.8-1.6,2.4-3.2H93.2z M96.8,14.1
		c0.5,0.3,0.7,0.5,1.3,0.9c0.2-0.5,0.3-0.8,0.4-1.1h-2.3c-0.1,0.1-0.3,0.5-0.7,0.9c0.5,0.9,1.1,1.4,1.5,1.7c0.2-0.2,0.3-0.3,0.4-0.5
		c-0.7-0.6-1-0.9-1.4-1.1L96.8,14.1z"/>
	<path d="M105.4,15.9c0.1,0.5,0.1,0.6,0.2,1.4c0.2-0.8,0.2-1.2,0.2-1.9l-0.9,0.3c0-0.2,0-0.2-0.1-0.4c-0.1,0-0.1,0-0.4,0.1v4.6h-1.2
		v-4.5c-0.7,0.1-1.2,0.1-1.4,0.2l-0.1-1.5c0.2,0,0.6,0,0.6,0c0.1-0.1,0.2-0.3,0.5-0.8c-0.7-0.8-1-1-1.3-1.2l0.6-1.4
		c0.2,0.1,0.2,0.2,0.3,0.3c0-0.1,0.3-0.7,0.5-1.5l1.4,0.3c-0.5,1.1-1,1.9-1.1,2.1c0.1,0.1,0.2,0.2,0.3,0.3c0.5-0.9,0.7-1.2,0.8-1.5
		l0.9,0.3v-1h6.8v1.3h-6.5c-0.5,1-1.4,2.3-1.9,3c0.1,0,0.3,0,0.8-0.1c-0.1-0.4-0.1-0.5-0.2-0.7l0.9-0.3c0.2,0.5,0.5,1.3,0.6,1.8
		v-3.3h5.9v2.5h-4.5v0.4h4.7v4.7c0,0.3-0.1,0.8-0.7,0.8h-0.6l-0.3-1.4h0.2c0.2,0,0.2-0.1,0.2-0.3v-0.6h-0.5v2.1h-0.7v-2.1h-0.4v2.1
		h-0.7v-2.1h-0.4v2.3h-1v-2.1c-0.3,1.3-0.7,1.9-0.9,2.2l-1.2-1c0.2-0.2,0.4-0.5,0.6-1.1l-0.6,0.1c0-0.7-0.1-1.4-0.2-2.1L105.4,15.9z
		 M102.9,16c0,2.1-0.2,2.9-0.3,3.3l-1-0.7c0.2-0.8,0.3-1.5,0.3-2.7L102.9,16z M107.2,12.5v0.5h3v-0.5H107.2z M107.9,15.7v0.8h0.4
		v-0.8H107.9z M109.1,15.7v0.8h0.4v-0.8H109.1z M110.2,15.7v0.8h0.5v-0.8H110.2z"/>
	<path d="M112.9,19.9c1.2-1.5,1.9-3.3,1.9-5.2c0-1.9-0.6-3.7-1.9-5.2h1.4c1.2,1.5,1.9,3.3,1.9,5.2s-0.7,3.7-1.9,5.2H112.9z"/>
</g>
<g>
	<path class="st3" d="M11.3,19.1c0.1-1.4,0.9-2.2,1.9-3.1c1.5-1.3,1.7-3,1.2-4.8C13.9,9,12.1,7.5,9.9,7.2C7.6,6.8,5.4,7.9,4.2,9.9
		c-1,1.7-1.1,4.8,1,6.4c0.2,0.2,0.4,0.4,0.6,0.5c0.6,0.6,0.9,1.4,1,2.3c1.4,0,2.7,0,4.1,0C11,19.1,11.2,19.1,11.3,19.1z"/>
	<path class="st3" d="M9,21c0.7,0,1.3,0,2,0c0.3,0,0.5-0.1,0.6-0.4c0-0.4-0.3-0.4-0.6-0.4c-1.3,0-2.6,0-3.9,0c-0.3,0-0.6,0-0.6,0.4
		C6.6,21,6.9,21,7.2,21C7.8,21,8.4,21,9,21z"/>
	<path class="st3" d="M9.1,22.8C9.1,22.8,9.1,22.8,9.1,22.8c0.3,0,0.7,0,1,0c0.2,0,0.4-0.2,0.4-0.4c0.1-0.3-0.1-0.4-0.4-0.4
		c-0.7,0-1.4,0-2,0c-0.2,0-0.4,0.3-0.4,0.4c0,0.2,0.1,0.4,0.4,0.4C8.4,22.8,8.7,22.8,9.1,22.8z"/>
	<path class="st3" d="M2.5,6.8C2.4,6.9,2.2,7,2.2,7.1c-0.1,0.1-0.1,0.4,0,0.5c0.3,0.4,0.7,0.7,1.1,1c0.3,0.2,0.7,0,0.7-0.3
		C4,8,2.8,6.8,2.5,6.8z"/>
	<path class="st3" d="M14.5,8.7c0.1,0,0.2,0,0.2,0c0.4-0.4,0.8-0.8,1.2-1.2c0.1-0.1,0-0.4-0.1-0.5c-0.1-0.1-0.4-0.1-0.5,0
		c-0.4,0.3-0.7,0.7-1,1c-0.1,0.1-0.1,0.3,0,0.5C14.3,8.5,14.5,8.6,14.5,8.7z"/>
	<path class="st3" d="M8.6,5.1C8.6,5.1,8.6,5.1,8.6,5.1c0,0.2-0.1,0.4,0,0.6c0.1,0.2,0.3,0.4,0.4,0.4c0.1,0,0.4-0.2,0.4-0.4
		c0.1-0.4,0.1-0.9,0-1.3c0-0.1-0.3-0.4-0.4-0.4c-0.1,0-0.4,0.2-0.4,0.4C8.6,4.6,8.6,4.9,8.6,5.1z"/>
	<path d="M11.3,19.1c-0.2,0-0.3,0-0.5,0c-1.3,0-2.7,0-4.1,0c-0.1-0.9-0.4-1.6-1-2.3c-0.2-0.2-0.4-0.4-0.6-0.5c-2.1-1.7-2-4.7-1-6.4
		c1.2-2,3.3-3.1,5.6-2.8c2.2,0.3,4,1.9,4.6,4.1c0.4,1.8,0.2,3.5-1.2,4.8C12.3,16.9,11.4,17.8,11.3,19.1z M9.5,18.3
		c0.3,0,0.6,0,0.8,0c0.1,0,0.3-0.1,0.3-0.2c0.3-1,0.9-1.8,1.7-2.4c1.3-1.1,1.6-2.5,1.2-4.1c-0.4-1.7-1.5-2.9-3.2-3.4
		C8.7,7.7,7.1,8.1,5.8,9.3c-1.8,1.7-1.9,4.8,0,6.4c0.8,0.6,1.4,1.4,1.7,2.4c0,0.1,0.1,0.2,0.2,0.2c0.3,0,0.6,0,0.9,0
		c0-0.6,0-1.2,0-1.7c0-0.6,0.2-1.4-0.1-1.9c-0.2-0.6-0.8-0.9-1.3-1.4c0,0,0,0,0,0c-0.2-0.2-0.4-0.5-0.1-0.8c0.3-0.3,0.5-0.1,0.7,0.1
		c0.4,0.4,0.8,0.8,1.2,1.2c0.4-0.4,0.8-0.8,1.1-1.2c0.2-0.2,0.5-0.4,0.8-0.1c0.3,0.3,0.1,0.5-0.1,0.7c-0.4,0.4-0.7,0.7-1.1,1.1
		c-0.1,0.1-0.2,0.2-0.2,0.3C9.5,15.8,9.5,17,9.5,18.3z"/>
	<path d="M9,21c-0.6,0-1.2,0-1.8,0c-0.3,0-0.6,0-0.6-0.4c0-0.4,0.3-0.4,0.6-0.4c1.3,0,2.6,0,3.9,0c0.3,0,0.6,0.1,0.6,0.4
		c0,0.3-0.2,0.4-0.6,0.4C10.4,21,9.7,21,9,21z"/>
	<path d="M9.1,22.8c-0.3,0-0.7,0-1,0c-0.3,0-0.5-0.2-0.4-0.4C7.7,22.2,7.9,22,8,22c0.7,0,1.4,0,2,0c0.3,0,0.5,0.2,0.4,0.4
		c0,0.2-0.3,0.4-0.4,0.4C9.8,22.9,9.4,22.8,9.1,22.8C9.1,22.8,9.1,22.8,9.1,22.8z"/>
	<path d="M2.5,6.8C2.8,6.8,4,8,4,8.3c0,0.3-0.4,0.6-0.7,0.3c-0.4-0.3-0.7-0.7-1.1-1c-0.1-0.1-0.1-0.3,0-0.5C2.2,7,2.4,6.9,2.5,6.8z"
		/>
	<path d="M14.5,8.7c-0.1-0.1-0.3-0.1-0.3-0.3c0-0.1,0-0.4,0-0.5c0.3-0.4,0.7-0.7,1-1c0.1-0.1,0.4-0.1,0.5,0C15.9,7,16,7.3,16,7.4
		c-0.4,0.4-0.8,0.8-1.2,1.2C14.7,8.7,14.7,8.7,14.5,8.7z"/>
	<path d="M8.6,5.1c0-0.2-0.1-0.4,0-0.6C8.7,4.3,8.9,4.1,9,4.1c0.1,0,0.4,0.2,0.4,0.4c0.1,0.4,0.1,0.9,0,1.3c0,0.1-0.3,0.4-0.4,0.4
		c-0.1,0-0.4-0.2-0.4-0.4C8.6,5.5,8.6,5.3,8.6,5.1C8.6,5.1,8.6,5.1,8.6,5.1z"/>
	<path class="st3" d="M9.5,18.3c0-1.2,0-2.4,0-3.6c0-0.1,0.1-0.2,0.2-0.3c0.4-0.4,0.7-0.8,1.1-1.1c0.2-0.2,0.4-0.5,0.1-0.7
		c-0.3-0.3-0.5-0.1-0.8,0.1c-0.4,0.4-0.7,0.8-1.1,1.2c-0.4-0.4-0.8-0.8-1.2-1.2c-0.2-0.2-0.5-0.4-0.7-0.1c-0.3,0.3-0.1,0.5,0.1,0.8
		c0,0,0,0,0,0c0.4,0.5,1.1,0.9,1.3,1.4c0.2,0.6,0.1,1.3,0.1,1.9c0,0.6,0,1.1,0,1.7c-0.3,0-0.6,0-0.9,0c-0.1,0-0.2-0.1-0.2-0.2
		c-0.3-1-0.9-1.8-1.7-2.4C3.9,14.2,4,11,5.8,9.3c1.3-1.2,2.9-1.6,4.6-1.1c1.7,0.5,2.8,1.7,3.2,3.4c0.3,1.6,0.1,3-1.2,4.1
		c-0.8,0.6-1.4,1.4-1.7,2.4c0,0.1-0.2,0.2-0.3,0.2C10.1,18.3,9.9,18.3,9.5,18.3z"/>
</g>
</svg>
