<?xml version="1.0" encoding="utf-8"?>
<!-- Generator: Adobe Illustrator 19.1.0, SVG Export Plug-In . SVG Version: 6.00 Build 0)  -->
<svg version="1.1" id="レイヤー_1" xmlns="http://www.w3.org/2000/svg" xmlns:xlink="http://www.w3.org/1999/xlink" x="0px"
	 y="0px" viewBox="0 0 164.4 62.4" style="enable-background:new 0 0 164.4 62.4;" xml:space="preserve">
<style type="text/css">
	.st0{fill:none;stroke:#000000;stroke-width:0.5;stroke-miterlimit:10;}
	.st1{fill:none;stroke:#000000;stroke-width:0.5;stroke-miterlimit:10;stroke-dasharray:2.9965,2.9965;}
	.st2{fill:#FFFFFF;}
	.st3{fill:none;stroke:#000000;stroke-width:4;stroke-linejoin:round;stroke-miterlimit:10;}
	.st4{fill:none;}
</style>
<g>
	<g>
		<g>
			<path d="M95.4,29.6c0.5,0,0.9,0.4,0.9,0.9v10.4c0,0.5-0.4,0.9-0.9,0.9s-0.9-0.4-0.9-0.9v-4.5h-2.6v4.5c0,0.5-0.4,0.9-0.9,0.9
				s-0.9-0.4-0.9-0.9V30.5c0-0.5,0.4-0.9,0.9-0.9s0.9,0.4,0.9,0.9v4.1h2.6v-4.1C94.5,30,94.9,29.6,95.4,29.6z"/>
			<path d="M97.4,39.1v-3.6c0-1.4,1.2-2.6,2.6-2.6c1.4,0,2.6,1.2,2.6,2.6v1.8c0,0.4-0.4,0.8-0.8,0.8H99v1c0,0.4,0.2,0.8,0.6,0.9
				c0.4,0.1,0.8,0.1,1.1-0.2c0.2-0.2,0.3-0.3,0.6-0.3c0.2,0,0.4,0.1,0.6,0.3c0.2,0.2,0.2,0.4,0.2,0.6c0,0.2-0.1,0.4-0.2,0.6
				c-0.8,0.7-1.8,1-2.8,0.6C98,41.1,97.4,40.2,97.4,39.1z M99,35.5v1h2v-1c0-0.6-0.4-1-1-1C99.4,34.5,99,35,99,35.5z"/>
			<path d="M105.2,40.9c0,0.4-0.4,0.8-0.8,0.8c-0.4,0-0.8-0.4-0.8-0.8v-7.1c0-0.4,0.4-0.8,0.8-0.8h5.4c1.4,0,2.6,1.2,2.6,2.6v5.3
				c0,0.4-0.4,0.8-0.8,0.8c-0.4,0-0.8-0.4-0.8-0.8v-5.3c0-0.6-0.4-1-1-1h-1v6.3c0,0.4-0.4,0.8-0.8,0.8c-0.4,0-0.8-0.4-0.8-0.8v-6.3
				h-2V40.9z"/>
			<path d="M116.5,39.1c0-0.3-0.1-0.5-0.4-0.7l-1.7-1.2c-0.6-0.4-1-1.1-1-1.8c-0.1-0.7,0.2-1.4,0.8-1.9c0.6-0.5,1.3-0.7,2-0.6
				c0.7,0.1,1.3,0.5,1.7,1.2c0.2,0.4,0.1,0.9-0.3,1.1c-0.4,0.2-0.9,0.1-1.1-0.3c-0.1-0.2-0.3-0.4-0.6-0.4c-0.2-0.1-0.5,0-0.7,0.2
				c-0.2,0.2-0.3,0.4-0.3,0.6c0,0.3,0.1,0.4,0.3,0.6l1.7,1.2c0.6,0.4,1,1.1,1.1,1.9c0.1,0.8-0.2,1.5-0.8,2c-0.6,0.5-1.3,0.7-2.1,0.6
				c-0.8-0.1-1.4-0.6-1.8-1.2c-0.2-0.4-0.1-0.9,0.3-1.1c0.4-0.2,0.9-0.1,1.1,0.3c0.1,0.3,0.3,0.4,0.6,0.4c0.3,0.1,0.5,0,0.7-0.2
				C116.4,39.7,116.5,39.4,116.5,39.1z"/>
			<path d="M91.1,45.1h2.1c1.7,0,3,1.3,3,3v1c0,1.7-1.3,3-3,3h-1.3v4.1c0,0.5-0.4,0.9-0.9,0.9s-0.9-0.4-0.9-0.9V46
				C90.2,45.5,90.6,45.1,91.1,45.1z M93.2,46.8h-1.3v3.6h1.3c0.7,0,1.3-0.6,1.3-1.3v-1C94.5,47.4,93.9,46.8,93.2,46.8z"/>
			<path d="M97.1,56.3v-7.1c0-0.4,0.4-0.8,0.8-0.8h1.8c0.4,0,0.9,0.1,1.3,0.3c0.4,0.2,0.5,0.7,0.3,1.1c-0.2,0.4-0.7,0.5-1.1,0.3
				C100,50,99.8,50,99.7,50h-1v6.3c0,0.4-0.4,0.8-0.8,0.8C97.4,57.1,97.1,56.7,97.1,56.3z"/>
			<path d="M102,46.4c0-0.6,0.4-1,1-1c0.6,0,1,0.4,1,1c0,0.6-0.4,1-1,1C102.4,47.4,102,47,102,46.4z M103,57.1
				c-0.4,0-0.8-0.4-0.8-0.8v-7.2c0-0.4,0.4-0.8,0.8-0.8c0.4,0,0.8,0.4,0.8,0.8v7.2C103.8,56.7,103.4,57.1,103,57.1z"/>
			<path d="M105.1,56.3v-7.1c0-0.4,0.4-0.8,0.8-0.8h1.8c1.4,0,2.6,1.2,2.6,2.6v5.3c0,0.4-0.4,0.8-0.8,0.8c-0.4,0-0.8-0.4-0.8-0.8V51
				c0-0.6-0.4-1-1-1h-1v6.3c0,0.4-0.4,0.8-0.8,0.8C105.5,57.1,105.1,56.7,105.1,56.3z"/>
			<path d="M110.9,49.2c0-0.4,0.4-0.8,0.8-0.8h0.6v-2.8c0-0.4,0.4-0.8,0.8-0.8c0.4,0,0.8,0.4,0.8,0.8v2.8h1c0.4,0,0.8,0.4,0.8,0.8
				c0,0.4-0.4,0.8-0.8,0.8h-1v4.5c0,0.6,0.4,1,1,1c0.4,0,0.8,0.4,0.8,0.8c0,0.4-0.4,0.8-0.8,0.8c-1.4,0-2.6-1.2-2.6-2.6V50h-0.6
				C111.3,50,110.9,49.6,110.9,49.2z"/>
			<path d="M116.4,54.5v-3.6c0-1.4,1.2-2.6,2.6-2.6c1.4,0,2.6,1.2,2.6,2.6v1.8c0,0.4-0.4,0.8-0.8,0.8H118v1c0,0.4,0.2,0.8,0.6,0.9
				c0.4,0.1,0.8,0.1,1.1-0.2c0.2-0.2,0.3-0.3,0.6-0.3c0.2,0,0.4,0.1,0.6,0.3c0.2,0.2,0.2,0.4,0.2,0.6c0,0.2-0.1,0.4-0.2,0.6
				c-0.8,0.7-1.8,1-2.8,0.6C117,56.5,116.4,55.6,116.4,54.5z M118,50.9v1h2v-1c0-0.6-0.4-1-1-1C118.4,49.9,118,50.4,118,50.9z"/>
			<path d="M122.6,56.3v-7.1c0-0.4,0.4-0.8,0.8-0.8h1.8c0.4,0,0.9,0.1,1.3,0.3c0.4,0.2,0.5,0.7,0.3,1.1c-0.2,0.4-0.7,0.5-1.1,0.3
				c-0.2-0.1-0.3-0.1-0.5-0.1h-1v6.3c0,0.4-0.4,0.8-0.8,0.8C123,57.1,122.6,56.7,122.6,56.3z"/>
		</g>
		<path d="M87.5,58.9c-3,0-4.7-1.6-6.2-3c-1.4-1.3-2.6-2.5-5-2.5c-2.3,0-3.6,1.1-5,2.5c-1.5,1.4-3.2,3-6.2,3c-3,0-4.7-1.6-6.2-3
			c-1.4-1.3-2.7-2.5-5-2.5c-2.3,0-3.6,1.1-5,2.5c-1.5,1.4-3.2,3-6.2,3c-0.4,0-0.7-0.3-0.9-0.6l-3.1-9.6c-0.1-0.3,0-0.6,0.1-0.8
			c0.2-0.2,0.4-0.4,0.7-0.4c2.3,0,3.6-1.1,5-2.5c1.5-1.4,3.2-3,6.2-3V28.5h-5.3c-0.4,0-0.8-0.3-0.9-0.7c-0.1-0.4,0-0.8,0.4-1
			l24-15.1c0.3-0.2,0.7-0.2,1,0l24,15.1c0.3,0.2,0.5,0.6,0.4,1c-0.1,0.4-0.5,0.7-0.9,0.7h-5.3V58C88.4,58.5,88,58.9,87.5,58.9z
			 M53.9,51.6c3,0,4.7,1.6,6.2,3c1.4,1.3,2.7,2.5,5,2.5c2.3,0,3.6-1.1,5-2.5c1.5-1.4,3.2-3,6.2-3c3,0,4.7,1.6,6.2,3
			c1.2,1.1,2.3,2.2,4.1,2.4V27.6c0-0.5,0.4-0.9,0.9-0.9h3L69.6,13.6L48.7,26.7h3c0.5,0,0.9,0.4,0.9,0.9v14.7c2,0.5,3.3,1.7,4.4,2.7
			c1.4,1.3,2.7,2.5,5,2.5c2.3,0,3.6-1.1,5-2.5c0.9-0.9,2-1.8,3.3-2.4h0V31.5c0-0.5,0.4-0.9,0.9-0.9h11.1c0.5,0,0.9,0.4,0.9,0.9V48
			c0,0.3-0.1,0.6-0.4,0.7C82.6,49,82.3,49,82,48.9c-1.5-0.5-2.6-1.5-3.7-2.5c-1.5-1.4-2.7-2.5-5.1-2.5c-2.3,0-3.6,1.1-5,2.5
			c-1.5,1.4-3.2,3-6.2,3c-3,0-4.7-1.6-6.2-3c-1.4-1.3-2.7-2.5-5-2.5c-2.3,0-3.6,1.1-5,2.5c-1.3,1.2-2.7,2.5-5,2.9l2.5,7.8
			c1.9-0.2,3.1-1.2,4.3-2.4C49.1,53.2,50.8,51.6,53.9,51.6z M73.2,42.1c3.1,0,4.8,1.6,6.3,3c0.6,0.6,1.2,1.1,1.9,1.5V32.4h-9.3v9.7
			C72.5,42.1,72.8,42.1,73.2,42.1z"/>
		<path d="M65.9,40.7H57c-0.5,0-0.9-0.4-0.9-0.9v-8.3c0-0.5,0.4-0.9,0.9-0.9h8.9c0.5,0,0.9,0.4,0.9,0.9v8.3
			C66.8,40.3,66.4,40.7,65.9,40.7z M57.9,38.9H65v-6.5h-7.1V38.9z"/>
		<rect x="57" y="34.8" width="8.9" height="1.8"/>
		<rect x="60.5" y="31.5" width="1.8" height="8.3"/>
		<circle cx="79.3" cy="40.5" r="1"/>
	</g>
	<rect x="0.2" y="0" class="st4" width="164.2" height="451.6"/>
</g>
</svg>
