<?xml version="1.0" encoding="utf-8"?>
<!-- Generator: Adobe Illustrator 19.1.0, SVG Export Plug-In . SVG Version: 6.00 Build 0)  -->
<svg version="1.1" id="レイヤー_1" xmlns="http://www.w3.org/2000/svg" xmlns:xlink="http://www.w3.org/1999/xlink" x="0px"
	 y="0px" viewBox="0 0 164.4 15.5" style="enable-background:new 0 0 164.4 15.5;" xml:space="preserve">
<style type="text/css">
	.st0{fill-rule:evenodd;clip-rule:evenodd;fill:#FFFFFF;}
	.st1{fill:none;stroke:#000000;stroke-width:0.5;stroke-miterlimit:10;}
	.st2{fill:none;stroke:#000000;stroke-width:0.5;stroke-miterlimit:10;stroke-dasharray:2.9965,2.9965;}
	.st3{fill:#FFFFFF;}
	.st4{fill:none;stroke:#000000;stroke-width:4;stroke-linejoin:round;stroke-miterlimit:10;}
	.st5{fill:none;}
	.st6{fill:none;stroke:#FFFFFF;stroke-linecap:round;stroke-linejoin:round;stroke-miterlimit:10;}
	.st7{fill:none;stroke:#000000;stroke-miterlimit:10;}
	.st8{fill-rule:evenodd;clip-rule:evenodd;}
	.st9{fill-rule:evenodd;clip-rule:evenodd;fill:#454545;}
</style>
<rect width="164.4" height="15.5"/>
<g>
	<path class="st3" d="M11.5,2.6l1.1,0.4l-0.1,0.2c1,1,1.5,1.5,1.7,1.6c0.6,0.5,1.1,0.8,1.5,1.1c0.4,0.2,1,0.5,1.6,0.7
		c-0.4,0.4-0.6,0.7-0.7,1c-0.5-0.2-1.1-0.6-2-1.1v0.9H9V6.6c-0.8,0.6-1.3,1-1.8,1.1C7,7.4,6.8,7.1,6.6,6.9C7.3,6.5,7.8,6.2,8,6
		c0.6-0.5,1.2-0.9,1.6-1.4C10.4,3.9,11.1,3.2,11.5,2.6z M7.9,8.4h6.9l0.1-0.1l0.8,0.4L14.8,11c-0.2,0.4-0.4,1.1-0.8,1.9L13,12.6
		l0.7-1.6l0.7-1.6H7.9V8.4z M11.8,4l-1.5,1.5c-0.2,0.2-0.6,0.6-1.1,1h5.2C13.8,6,13.3,5.6,13,5.3C12.6,5,12.2,4.5,11.8,4z"/>
	<path class="st3" d="M23.9,3.3H30v8.3c0,0.2,0,0.4-0.1,0.6c-0.1,0.1-0.2,0.2-0.5,0.3c-0.3,0.1-0.8,0.2-1.4,0.2
		c-0.1-0.4-0.2-0.7-0.4-1.1h1.1c0.1,0,0.1,0,0.1,0c0,0,0-0.1,0-0.2V9.3h-4.2c-0.2,0.9-0.4,1.6-0.7,2.2c-0.2,0.5-0.6,1-1,1.5
		c-0.3-0.3-0.6-0.6-0.8-0.8c0.4-0.5,0.7-0.9,0.8-1.1c0.2-0.4,0.4-0.8,0.5-1.3c0.1-0.5,0.2-1,0.3-1.5C23.9,7.7,23.9,6,23.9,3.3z
		 M25,6.7l-0.1,1.6H29V6.7H25z M29,5.8V4.3h-4v1.5H29z"/>
	<path class="st3" d="M41.9,12.6c-0.1-0.4-0.3-0.7-0.5-1c1-0.2,1.7-0.4,2-0.6c0.5-0.3,1-0.6,1.3-1.1C45,9.3,45.2,8.7,45.2,8
		c0-0.9-0.3-1.7-0.8-2.2c-0.6-0.6-1.3-0.9-2.3-0.9c-0.4,1.9-0.7,3.2-1.1,4c-0.5,1.1-1,1.9-1.5,2.4c-0.2,0.3-0.5,0.4-0.8,0.4
		c-0.4,0-0.8-0.2-1.2-0.7c-0.5-0.6-0.7-1.5-0.7-2.4c0-1.3,0.5-2.4,1.4-3.3C39.2,4.4,40.4,4,42,4c0.8,0,1.5,0.2,2.2,0.5
		c0.5,0.2,0.9,0.5,1.2,0.8c0.3,0.3,0.5,0.7,0.7,1.2c0.1,0.5,0.2,1,0.2,1.5c0,0.9-0.2,1.7-0.6,2.3c-0.4,0.6-0.9,1.1-1.7,1.5
		C43.6,12.1,42.9,12.4,41.9,12.6z M41,4.9c-1.1,0.3-1.9,0.7-2.4,1.3c-0.5,0.7-0.7,1.4-0.7,2.3c0,0.7,0.1,1.2,0.4,1.6
		c0.1,0.3,0.3,0.4,0.5,0.4c0.1,0,0.2-0.1,0.3-0.2c0.3-0.3,0.6-0.9,1.1-2C40.6,7.2,40.9,6.1,41,4.9z"/>
	<path class="st3" d="M54.3,3.7h2.4v0.8h-1.3l0.4,0.7l-0.9,0.3c-0.2-0.4-0.3-0.7-0.5-1h-0.6c-0.5,0.6-0.9,1.1-1.2,1.5
		c-0.3-0.3-0.6-0.6-0.8-0.7c0.6-0.6,0.9-1.1,1.1-1.4c0.2-0.2,0.4-0.6,0.7-1.2l1,0.5C54.5,3.2,54.4,3.4,54.3,3.7z M52.8,11.5V5.9h3.9
		v3.8h-2.9v1.6l0.8-0.1c-0.1,0,0.2-0.1,0.9-0.2l-0.4-0.6L56,9.9c0.5,0.9,0.8,1.4,0.9,1.5c0,0.2,0.1,0.4,0.3,0.6l-0.9,0.5
		c0,0-0.1-0.2-0.4-0.7l-1.9,0.5l-1.7,0.4l-0.3-1C52.1,11.6,52.4,11.6,52.8,11.5z M55.8,7.4V6.7h-2v0.7H55.8z M55.8,8.9V8.1h-2v0.8
		H55.8z M58.6,2.9l-0.3,0.7h3.6v0.8h-2l0.4,0.7l-0.9,0.3c-0.1-0.3-0.3-0.6-0.5-1h-0.9c-0.3,0.4-0.5,0.8-0.8,1.1
		c-0.1,0-0.3-0.2-0.8-0.6c0.6-0.6,1-1.5,1.3-2.4L58.6,2.9z M57.7,12.9v-7h3.9v4.8c0,0.4-0.1,0.6-0.3,0.8c-0.2,0.2-0.7,0.4-1.4,0.4
		c0-0.3,0-0.5,0-0.6c0-0.1-0.1-0.2-0.3-0.5h0.8c0.1,0,0.1,0,0.2,0c0,0,0-0.1,0-0.2V6.7h-1.9v6.2H57.7z"/>
	<path class="st3" d="M68.7,3.9V3.1h8.2v0.8h-3.7v0.5h4.4v2.1h-1.1V5.1h-3.4v2.4h-1V5.1h-3.4v1.4h-1.1V4.4h4.4V3.9H68.7z M68.8,11.9
		V7.8h8v3.5h-3.5v0.5c0,0.1,0,0.1,0.1,0.2c0.1,0.1,0.1,0.1,0.1,0.1c0,0,0.2,0,0.6,0h1.6c0.5,0,0.8,0,0.9,0c0.1,0,0.2-0.1,0.4-0.4
		c0.1-0.2,0.2-0.5,0.3-0.9c0.4,0.3,0.7,0.5,1,0.6c-0.2,0.6-0.4,1-0.5,1.1c-0.2,0.2-0.3,0.3-0.4,0.3c-0.2,0.1-0.6,0.1-1.2,0.1h-2
		c-0.7,0-1.2-0.1-1.5-0.2c-0.2-0.1-0.3-0.3-0.3-0.6v-0.8h-2.3v0.6H68.8z M69.3,6.2V5.5h2.3v0.7H69.3z M69.3,7.3V6.6h2.3v0.7H69.3z
		 M72.1,9.2V8.6h-2.3v0.6H72.1z M72.1,10.6V9.9h-2.3v0.7H72.1z M75.6,9.2V8.6h-2.4v0.6H75.6z M75.6,10.6V9.9h-2.4v0.7H75.6z
		 M73.8,6.2V5.5h2.3v0.7H73.8z M73.8,7.3V6.6h2.3v0.7H73.8z"/>
	<path class="st3" d="M84.5,12.8V3.5h6.7v9.2h-1.1v-0.6h-4.5v0.7H84.5z M90.1,6V4.5h-4.5V6H90.1z M90.1,8.5V7h-4.5v1.6H90.1z
		 M90.1,11.1V9.5h-4.5v1.6H90.1z"/>
	<path class="st3" d="M99.3,5V2.8h1V5h1v1h-1v0.8c0.3,0.3,0.7,0.6,1.1,0.9c-0.1,0.1-0.2,0.3-0.3,0.4c-0.1,0.1-0.2,0.3-0.3,0.5
		c-0.2-0.2-0.4-0.4-0.6-0.5V13h-1V8.7c-0.3,0.5-0.6,1.1-1,1.7c-0.1-0.3-0.3-0.7-0.6-1.2c0.3-0.4,0.6-0.9,1-1.7
		C98.9,7.2,99,6.7,99.3,6H98V5H99.3z M101.3,12.5c-0.1-0.2-0.4-0.5-0.7-0.7c0.3-0.2,0.5-0.3,0.7-0.5c0.2-0.1,0.3-0.2,0.4-0.2
		c0,0,0.3-0.3,0.9-0.7l0.8,0.6c-0.3,0.2-0.7,0.5-1.2,1C101.9,12.2,101.6,12.4,101.3,12.5z M101,10V9.2h7V10h-3v2.1
		c0,0.3-0.1,0.4-0.2,0.5c-0.2,0.1-0.6,0.2-1.4,0.4c-0.1-0.5-0.2-0.8-0.3-1h0.7c0.1,0,0.1,0,0.2,0c0,0,0-0.1,0-0.2V10H101z M101.1,4
		V3.2h6.7V4h-2.2v0.7h1.9v2.4h-6.2V4.8h1.7V4H101.1z M101.9,8.6V7.8h5.1v0.8H101.9z M103.1,6.4V5.5h-0.8v0.9H103.1z M104.9,4.8V4
		H104v0.7H104.9z M104.9,6.4V5.5H104v0.9H104.9z M108.2,11.7c-0.2,0.3-0.4,0.5-0.6,0.8c-0.8-0.5-1.5-1-2.1-1.5l0.6-0.7
		C106.7,10.9,107.4,11.3,108.2,11.7z M106.6,6.4V5.5h-1v0.9H106.6z"/>
	<path class="st3" d="M113.9,8V7h2.3v3.8c0.4,0.3,0.8,0.5,1.1,0.7c0.5,0.2,1,0.3,1.4,0.3c0.5,0.1,1.2,0.1,2,0.1h3.4
		c-0.2,0.4-0.3,0.7-0.4,1h-3.6c-0.8,0-1.7-0.1-2.6-0.4c-0.5-0.1-1-0.4-1.5-0.7l-1.7,1.2l-0.7-1c0.1,0,0.6-0.3,1.5-0.8V8H113.9z
		 M116.5,4L116,4.8c0,0-0.5-0.4-1.5-1l0.5-0.8C115.3,3.2,115.8,3.5,116.5,4z M119.6,3.7V2.8h1.1v0.9h2.6v0.8h-2.6v0.7h3.2v0.7h-1.5
		l-0.5,1h1.5v0.7h-2.7v0.6h2.4v0.7h-2.4v0.7h3.2v0.7h-3.2v1.2h-1.1v-1.2h-3V9.6h3V8.9h-2.3V8.3h2.3V7.7h-2.8V6.9h1.7l-0.4-1h-1.5
		V5.2h3V4.5h-2.4V3.7H119.6z M121.3,5.9h-2.2l0.4,1h1.4c0.1-0.2,0.2-0.3,0.3-0.5C121.2,6.3,121.3,6.1,121.3,5.9z"/>
	<path class="st3" d="M136.3,4.6h3.5v1h-3.4c0,1.2,0.2,2.3,0.6,3.4c0.1-0.2,0.3-0.6,0.6-1.1c0.1-0.2,0.3-0.7,0.5-1.5l1.1,0.5
		c-0.3,0.7-0.6,1.3-0.8,1.8c-0.3,0.5-0.5,0.9-0.8,1.3c0.3,0.5,0.6,0.9,0.9,1.2c0.2,0.2,0.4,0.3,0.4,0.3c0,0,0.1,0,0.1-0.1
		c0,0,0.1-0.4,0.2-1.1c0.4,0.2,0.5,0.3,0.5,0.3c0.1,0,0.3,0.1,0.5,0.1c-0.2,1-0.4,1.5-0.5,1.7c-0.2,0.2-0.4,0.3-0.6,0.3
		c-0.6,0-1.4-0.6-2.3-1.9c-0.9,0.9-1.9,1.5-3,2c0-0.1,0-0.2-0.1-0.2c0-0.1-0.1-0.1-0.1-0.2c0-0.1-0.2-0.2-0.4-0.4
		c0.9-0.4,1.6-0.8,2.1-1.1c0.3-0.2,0.6-0.5,1.1-1c-0.5-1.1-0.8-2.6-1-4.4h-3.6V7h2.9c-0.1,1.8-0.2,2.9-0.4,3.5
		c0,0.2-0.2,0.4-0.4,0.6c-0.3,0.2-0.9,0.4-1.7,0.4l-0.1-0.7c-0.1-0.2-0.1-0.3-0.2-0.5h1.2c0.1,0,0.2,0,0.2-0.1
		c0.1-0.1,0.1-0.9,0.3-2.4h-1.8c0,1.1-0.1,2-0.4,2.8c-0.1,0.5-0.2,0.9-0.4,1.3l-0.6,1.1v0c-0.1-0.3-0.4-0.6-0.7-1
		c0.3-0.5,0.5-1,0.7-1.5c0.1-0.5,0.2-1.1,0.3-1.8c0.1-0.9,0.1-2.3,0.1-4.2h4.7c0-0.6,0-1.2,0-1.9h1.1C136.4,3.5,136.3,4.1,136.3,4.6
		z M137,3.4l0.6-0.7c0,0,0.5,0.4,1.4,1l-0.7,0.7c-0.2-0.2-0.4-0.3-0.6-0.4c-0.1-0.1-0.3-0.2-0.4-0.3C137.3,3.7,137.1,3.6,137,3.4z"
		/>
	<path class="st3" d="M150.5,3.7V2.7h1.1v1.1h4.1v0.9h-8.1c0,2.5,0,3.9,0,4.3c-0.1,0.8-0.2,1.5-0.4,2.2c-0.1,0.5-0.4,1.1-0.8,2
		c-0.2-0.3-0.5-0.5-0.8-0.8c0.3-0.6,0.6-1.2,0.7-1.8c0.2-0.8,0.3-1.9,0.3-3V3.7H150.5z M148.1,8.8h5.8l0.1,0l0.5,0.6
		c-0.8,0.9-1.5,1.5-2,1.9c0.5,0.2,1,0.4,1.5,0.4c0.2,0.1,0.8,0.2,1.8,0.4c-0.2,0.4-0.3,0.5-0.3,0.5c-0.1,0.1-0.2,0.3-0.3,0.5
		c-0.8-0.1-1.4-0.2-1.8-0.4c-0.6-0.2-1.2-0.5-1.8-0.8c-0.1,0.1-0.5,0.2-1,0.4c-0.5,0.2-0.8,0.3-0.9,0.4c-0.7,0.2-1.4,0.4-2.2,0.5
		c-0.1-0.1-0.1-0.2-0.2-0.4c-0.1-0.1-0.1-0.2-0.2-0.3c0-0.1-0.1-0.2-0.2-0.3c1-0.1,1.7-0.3,2.2-0.4c0.5-0.1,1-0.3,1.5-0.5
		c-0.3-0.3-0.5-0.5-0.7-0.6c-0.2-0.2-0.4-0.5-0.7-1h-1.3V8.8z M149.4,5.7V4.8h1.1v0.9h2V4.8h1v0.9h2.1v0.8h-2.1v1.7h-4.1V6.5h-1.6
		V5.7H149.4z M151.6,10.7c0.4-0.2,0.8-0.6,1.3-1.1h-2.5C150.8,10.1,151.2,10.5,151.6,10.7z M152.5,7.4V6.5h-2v0.8H152.5z"/>
</g>
</svg>
